<svg xmlns="http://www.w3.org/2000/svg" width="current" height="current" viewBox="0 0 37 28" fill="none">
  <path d="M4.7 7.10946C5.37945 9.4668 7.45996 13.2718 10.25 13.8818C10.737 13.9883 11.3962 14.2978 11.9 14.1934C12.4915 14.0709 12.8384 12.7934 13 12.4224C13.8423 10.4887 14.8232 8.61168 15.6333 6.66671C16.0707 5.61677 16.7589 3.08294 18.0833 2.68198C18.899 2.43506 19.872 1.85093 20.1333 2.84596C21.032 6.26755 21.6081 9.89549 23.1333 13.1111C23.4534 13.786 24.0418 14.6478 24.2 15.3741C24.2713 15.7013 24.7949 15.0179 25 14.7509C26.3028 13.0556 27.3157 11.156 28.3667 9.30679C29.5831 7.16655 30.7364 4.95819 32.1667 2.94435C32.2408 2.84003 32.8814 1.89478 32.9333 2.00966C34.9692 6.51658 35 11.9738 35 16.8499C35 18.7193 35 20.5886 35 22.458C35 24.8237 34.7078 24.7207 32.3 25.3441C28.0095 26.455 22.9166 25.7048 18.5167 25.7048C15.3873 25.7048 12.2855 26 9.15 26C7.66667 26 6.18333 26 4.7 26C3.76695 26 3.2345 23.5339 3.2 22.7532C2.97968 17.7675 2 13.0253 2 7.99495" stroke="#FFE815" stroke-width="3" stroke-linecap="round"/>
</svg>